<?xml version="1.0" standalone="no"?><!DOCTYPE svg PUBLIC "-//W3C//DTD SVG 1.1//EN" "http://www.w3.org/Graphics/SVG/1.1/DTD/svg11.dtd"><svg class="icon" width="200px" height="200.00px" viewBox="0 0 1024 1024" version="1.1" xmlns="http://www.w3.org/2000/svg"><path fill="#6e05be" d="M512 0a512 512 0 1 1 0 1024A512 512 0 0 1 512 0z m43.349333 658.346667a291.498667 291.498667 0 0 1-86.698666 0v84.650666h-55.722667c-11.776 0-22.186667 6.997333-25.258667 17.066667l-19.797333 63.573333a21.504 21.504 0 0 0 4.437333 20.48 27.477333 27.477333 0 0 0 20.906667 9.216h237.824c14.506667 0 26.197333-10.496 26.197333-23.466666a21.333333 21.333333 0 0 0-1.962666-9.045334l-18.944-60.672a25.941333 25.941333 0 0 0-25.258667-17.152h-55.722667v-84.650666z m173.653334-175.189334l1.194666-2.474666-0.170666 0.853333c-4.266667 18.261333-2.56 18.346667-0.853334 18.346667 50.773333 0 100.864-39.850667 118.186667-97.792 19.712-66.218667-11.008-131.072-68.608-144.810667a89.6 89.6 0 0 0-14.250667-2.218667l-7.68-0.341333c-3.413333 0-6.826667 0.256-10.24 0.597333v-62.549333C746.666667 180.565333 735.573333 170.666667 722.090667 170.666667H302.08c-13.653333 0-24.746667 9.898667-24.746667 22.101333v62.549333l-5.12-0.426666-5.034666-0.170667c-7.765333 0-15.36 0.938667-22.528 2.730667-57.002667 13.568-87.722667 78.421333-68.010667 144.64 17.322667 58.026667 67.413333 97.877333 118.186667 97.877333 2.56 0 5.12-0.256 7.765333-0.512L309.674667 512v0.085333l0.853333 1.194667-0.768-1.194667c2.048 2.304 7.68 8.874667 26.453333 31.317334l0.426667 0.597333 8.704 8.618667 14.848 14.762666 9.216 9.130667a227.754667 227.754667 0 0 1-38.826667-35.754667l-9.216-11.776 0.341334 0.426667-2.389334-3.072-8.021333-11.776 8.362667 12.373333 1.194666 1.621334c-0.341333-0.256-0.256-0.170667-0.170666 0 3.669333 4.778667 7.424 9.642667 11.434666 14.250666l0.341334 0.341334c8.362667 9.642667 17.578667 18.602667 27.562666 26.794666l0.512 0.426667c4.864 4.010667 9.984 7.765333 15.189334 11.434667l0.682666 0.512c21.589333 14.762667 45.909333 26.112 72.021334 33.28h0.256l9.898666 2.56 10.069334 2.048 12.544 1.962666 9.301333 0.853334c-0.170667 0-0.256 0 0.170667 0.085333h0.512l3.413333 0.341333 3.498667 0.085334 3.072 0.341333a231.850667 231.850667 0 0 0 32.426666-0.768h0.512c7.168-0.682667 14.250667-1.706667 21.162667-2.901333h0.170667l15.018666-3.242667 6.485334-1.877333 25.429333-9.045334 6.4-2.304 11.690667-5.376c9.386667-4.778667 18.432-10.154667 27.050666-16.042666l0.768-0.512a229.461333 229.461333 0 0 0 55.04-53.333334l1.109334-1.621333L714.410667 512l1.024-1.706667c-0.341333 0.512-0.682667 1.024 17.066666-43.605333l3.925334-9.813333-0.768 2.901333-4.181334 15.786667-0.853333 3.328 3.754667-9.984c1.621333-4.949333 3.072-9.984 4.266666-15.018667l0.853334-4.778667 1.877333-4.437333c-2.56 12.032-6.144 23.808-10.666667 34.986667l-0.512 1.024 0.341334-1.536-1.536 4.010666zM512 257.792c3.413333 0 6.314667 1.877333 7.424 4.693333l28.757333 73.045334 87.552 1.536c3.413333 0 6.314667 2.048 7.338667 4.864 1.024 2.901333-0.085333 5.973333-2.816 7.850666l-69.717333 46.677334 25.344 73.984a6.229333 6.229333 0 0 1 0.341333 2.048 6.826667 6.826667 0 0 1-3.157333 5.632 8.704 8.704 0 0 1-9.130667 0.170666L512 434.090667l-71.936 44.202666a8.704 8.704 0 0 1-9.130667-0.085333 6.826667 6.826667 0 0 1-3.157333-5.717333c0-0.768 0.085333-1.450667 0.341333-2.133334l25.258667-73.898666-69.717333-46.677334a6.656 6.656 0 0 1-2.730667-7.850666 7.850667 7.850667 0 0 1 7.338667-4.864l87.552-1.536 28.757333-73.045334A7.850667 7.850667 0 0 1 512 257.706667z m-244.736 34.474667c3.328 0 6.656 0.426667 10.069333 1.024v104.106666c0 6.4 0.341333 12.629333 0.853334 18.858667l0.256 2.56c0.512 5.888 1.365333 11.690667 2.389333 17.493333l0.597333 3.072c1.109333 5.717333 2.474667 11.349333 4.010667 16.981334l0.768 2.56 0.853333 2.816c-29.781333-4.266667-58.88-32.597333-69.802666-69.290667-13.568-45.397333 4.266667-90.709333 38.826666-98.901333a47.104 47.104 0 0 1 11.093334-1.28z m478.634667 122.026666l0.768-14.250666-0.256 3.157333-0.256 6.997333-0.170667 3.072 0.170667-0.597333v-2.474667l0.256-3.328 0.256-9.386666V293.205333A47.786667 47.786667 0 0 1 768 293.546667c34.56 8.192 52.309333 53.504 38.741333 98.986666-10.922667 36.608-39.936 64.853333-69.802666 69.290667l0.853333-2.901333 0.853333-2.56 3.669334-15.274667 0.853333-6.144-0.085333 1.194667 1.877333-11.178667 0.768-9.130667z"  /></svg>