<?xml version="1.0" standalone="no"?><!DOCTYPE svg PUBLIC "-//W3C//DTD SVG 1.1//EN" "http://www.w3.org/Graphics/SVG/1.1/DTD/svg11.dtd"><svg class="icon" width="200px" height="181.40px" viewBox="0 0 1129 1024" version="1.1" xmlns="http://www.w3.org/2000/svg"><path fill="#6e05be" d="M981.989744 393.846154l-157.538462 47.261538c-26.25641 7.876923-55.138462-2.625641-70.892308-23.630769l-136.533333-202.174359c-23.630769-36.758974-81.394872-36.758974-105.025641 0l-136.533333 199.548718c-15.753846 23.630769-44.635897 34.133333-70.892308 23.630769l-157.538462-47.261538c-44.635897-15.753846-91.897436 26.25641-81.394871 73.517949L157.538462 947.85641c7.876923 44.635897 47.261538 76.14359 94.523076 76.14359h627.528206c47.261538 0 86.646154-31.507692 94.523077-76.14359l89.271794-477.866666c7.876923-49.887179-36.758974-89.271795-81.394871-76.14359zM708.923077 622.276923l-118.153846 236.307692c-5.251282 10.502564-15.753846 15.753846-26.25641 15.753847s-21.005128-5.251282-26.256411-15.753847l-118.153846-236.307692c-7.876923-15.753846-2.625641-31.507692 13.128205-39.384615 15.753846-7.876923 31.507692-2.625641 39.384616 13.128205l91.897436 186.420513 91.897435-186.420513c7.876923-15.753846 23.630769-21.005128 39.384616-13.128205 15.753846 7.876923 21.005128 26.25641 13.128205 39.384615zM498.871795 63.015385c0 23.630769 13.128205 44.635897 31.507692 55.138461 21.005128 10.502564 44.635897 10.502564 65.641026 0s31.507692-31.507692 31.507692-55.138461c0-23.630769-13.128205-44.635897-31.507692-55.138462-21.005128-10.502564-44.635897-10.502564-65.641026 0-18.379487 10.502564-31.507692 31.507692-31.507692 55.138462zM0 278.317949C0 315.076923 28.882051 341.333333 65.641026 341.333333S131.282051 312.451282 131.282051 278.317949c0-36.758974-28.882051-63.015385-65.641025-63.015385-36.758974-2.625641-65.641026 26.25641-65.641026 63.015385z m0 0M1000.369231 278.317949c0 23.630769 13.128205 44.635897 31.507692 55.138461 21.005128 10.502564 44.635897 10.502564 65.641026 0s31.507692-31.507692 31.507692-55.138461c0-23.630769-13.128205-44.635897-31.507692-55.138462-21.005128-10.502564-44.635897-10.502564-65.641026 0s-31.507692 31.507692-31.507692 55.138462z m0 0"  /></svg>