<?xml version="1.0" standalone="no"?><!DOCTYPE svg PUBLIC "-//W3C//DTD SVG 1.1//EN" "http://www.w3.org/Graphics/SVG/1.1/DTD/svg11.dtd"><svg class="icon" width="200px" height="200.00px" viewBox="0 0 1024 1024" version="1.1" xmlns="http://www.w3.org/2000/svg"><path d="M793.8 785.2c-35 0.2-46.7-25.3-57-54.5-12.6-35.8-15.4-70.2-17.6-107.8-1.9-32.2-7.8-64.1-19.5-93.4 0.9-4.1-1.1-8.2-4.4-10.4C675.5 452.1 629 392.4 559 383c-74.5-15.5-159.9 27.3-195.6 97.1-28.8 56.5-25 116.4-23.5 177.9 1.2 48-0.8 105.5-37.9 137.1-2.2 0.6-4.4 1.1-6.8 1.6-4.3 0.9-6.5 4.2-6.9 7.9-3.2 1.8-6.5 3.4-10 4.9-11.6 4.8-7.4 21.1 5.2 18.9 40.7-6.9 81.5-12.1 122.2-15.9 20.6-0.4 41.3-0.8 61.9-1.1l-0.6 1.2c-0.1 0.2-0.2 0.3-0.2 0.5l-0.3 0.6c-15.8 50 49.8 74.9 88.5 67 21.9-4.4 46.8-15.4 58.3-35.6 6.4-11.3 7.4-24.2 3.4-35.6 59-0.8 118-2 176.9-4.7 12.8-0.6 12.9-19.7 0.2-19.6zM685.7 562.3c-6.9 5.9-13.6 12-20.2 18.3 6.5-8.4 12.8-16.9 18.8-25.7 0.5 2.4 0.9 4.9 1.4 7.4z m-34.2-76.4c0.9 1 1.7 2.1 2.6 3.1-2.4 0.9-4.7 2.1-6.9 3.4 1.5-2.1 3-4.3 4.3-6.5z m-20-45.3l1.1 1.1c-0.4-0.3-0.9-0.6-1.3-0.9 0.1-0.1 0.2-0.1 0.2-0.2z m-36.8-22.3c2.7 1.7 5.4 3.4 8 5.3-0.2 0.1-0.3 0.2-0.5 0.4-3.8-1.8-7.6-3.4-11.5-4.9 1.5 0 2.8-0.3 4-0.8z m20.8 41.4c0.9-1.2 1.8-2.5 2.8-3.7 2.9 2 5.8 4.1 8.7 6.3-36.2 41.9-71.4 84.7-106.7 127.4l67.5-92.1c9.2-12.7 18.4-25.3 27.7-37.9zM490.2 597.6c-19.9 27.1-39.7 54.2-59.6 81.2 0.1-2.7 0.3-5.3 0.4-8 13.9-7.6 18.1-22.4 26.9-35.7 15.2-23 31.8-45.3 48.4-67.3 16.7-22.2 34-43.9 51.8-65.3 3.7-4.5 7.6-8.9 11.4-13.3-26.4 36.3-52.9 72.3-79.3 108.4z m91.9-160.7c1.6 0.6 3.2 1.2 4.8 1.9-3.5 4.2-6.9 8.5-10.2 12.2-19.7 22.2-38.7 45-57.2 68.2-5.7 7.1-11.2 14.3-16.7 21.5 25.6-35.2 52.1-69.8 79.3-103.8z m-38.5-10c-0.3 0.3-0.6 0.5-0.8 0.8-16 16.1-29.7 35.3-43.5 53.3-16.4 21.4-31.9 43.4-46.7 65.9 21.7-38.2 46.2-74.5 74.1-108.4 3.6-4.4 2.7-9.6 0-13.2 5.7 0.3 11.3 0.8 16.9 1.6zM361.6 548c9.8-55.5 40.8-106.7 92.6-131.7 21.5-10.4 45.1-16.2 68.5-16.6 0.2 0.2 0.4 0.4 0.6 0.5-8.8 1.7-17.5 4.1-25.9 7-2.4 0.3-4.8 0.6-7.2 1-55.5 9.4-96 48.8-115.9 100.1-6.9 17.9-11.5 36.6-14.8 55.4 0.5-5.4 1.2-10.6 2.1-15.7z m53.4 50.6l-2.4 46.8c-0.4 2.6-0.6 5.4-0.4 8.2-2 40.2-3.8 80.4-5.4 120.6-0.1 2.3 0.5 4.2 1.6 5.7 0 0.4 0 0.8-0.1 1.2-0.8 2.1-1.7 4.1-2.8 6-1.1 1.9-1.4 3.8-1.2 5.6-20.5 0.4-41 1-61.5 1.7 45.9-43.7 27.2-137.6 33.7-196.3 5.8-51.7 25.8-103.1 65.9-137.8 17.2-14.9 37.2-26.5 58.6-34.2 1-0.1 2-0.3 3.1-0.4 2.7-0.3 5.3-0.3 8-0.5-3.5 4.3-6.9 8.5-10.3 12.9-4-1.6-9.2-0.9-12.4 3.4-20 26.3-36.7 54.3-50.7 84-0.8 1.5-1.7 3-2.5 4.6-11.1 21.2-20.6 42.2-20.6 65.5-0.3 1-0.5 1.9-0.6 3z m13.2 135.7c0.1-3.2 0.3-6.3 0.4-9.5 8.8-3 15.5-14.4 21-20.7 51.4-59.4 100.6-120.7 151.2-180.9-29.3 42.7-64.8 94-70.2 101.8-1 1.4-2 2.8-3 4.3-23.3 27.4-47 54.5-72.4 80-8.2 8.2-18.6 16.1-27 25z m29.4 26.2c26.3-34.4 55.4-66.2 84.3-98.7 43.3-48.8 86.6-97.7 129.9-146.5 1.7 3.1 3.3 6.2 4.9 9.4-23.2 17-42.9 41.4-62.3 61.9-23.7 24.9-46.2 50.7-67.5 77.7-27.6 34.9-54.2 70.2-89.3 96.2z m51.2-11.7c28.9-33.3 60.8-64 91.7-95.5-28.6 34.3-57.3 68.4-91.7 95.5z m6.2 20l-1.8 3.3h-2.7l4.5-3.3z m-29 46.3c-0.1-1.5-0.6-2.9-1.4-4l103.2-1.2c-1.7 48.7-87.8 53.9-101.8 5.2z m93.3-41.9c-3.1-0.1-6.1-0.1-9.2-0.2 10.2-8.1 20.3-16.3 30.2-24.7-6.9 8.3-13.9 16.6-21 24.9z m108.5-96.3c-19 16.6-34.9 39.1-52.4 59.3 17.8-22 35.3-44.2 52.5-66.7-0.1 2.5-0.1 4.9-0.1 7.4z m2.8-42c-0.7 0.4-1.3 0.9-1.9 1.5-13.7 14.8-27.8 29.2-42.1 43.3 15.1-16 30-32.3 44.6-48.7-0.2 1.3-0.5 2.6-0.6 3.9z m-80.7 51.4c-6.9 8.7-14.1 17.1-21.6 25.3-11.8 11.8-23.7 23.5-35.8 35.1 18.6-23.9 41.2-45.8 59.8-67.4 25.8-30.1 51.6-60.1 77.5-90.2 0.6 4.2 1.1 8.4 1.6 12.6-34.4 20.7-56.9 53.8-81.5 84.6z m88.2 98.3c1.7-1.2 3.3-2.5 4.8-4.1 1.1-1.2 2.2-2.6 3.1-4 0.2 0.4 0.3 0.8 0.4 1.2 2.9 7.5 11.6 8.7 16.2 4.3 0.7 1.1 1.5 2.2 2.3 3.2-8.9-0.2-17.8-0.4-26.8-0.6z" fill="#384D9E" /><path d="M893.4 460.2c-52.2-1.8-103.4-10.1-153.1-24.7-9.1-3-18.2-6-27.3-9.1 5.7-2.2 11.2-5.2 16.4-8.8 23.3-16.1 35.8-42.1 42.7-68.8 8.5-32.9 13.8-70.1 10.8-104.1-4.4-50.4-39.7-106.6-97.1-100.8-6.5 0.6-12.9 2-19.4 3.9-6.4-0.4-13.2-0.1-20.3 1.1-36.9 6.6-62.2 33.2-83 62.5-5.4 4.9-10.6 9.9-15.6 15.1-9.2-10.6-20.6-19.2-34.2-24.5-25.6-10-51-2.4-64.7 19.9-25.8-36.2-56.4-72.5-102.9-79.2-24.2-3.5-43.9 2.3-59.4 14.1-12.4 6.7-21.4 19-26.8 33.2-4 7.9-7.4 16.4-10.1 25.4-14.4 48.2-11.3 105.6 12.2 149.5-8 6.7-12.8 15.6-10.4 27.5 3.8 18.5 18.1 23 34.3 23.9 0.9 1.2 1.8 2.4 2.7 3.5 3.8 4.4 7.9 7.9 12.4 10.8-5.4 9.8-11.1 19.3-17.3 28.5-36.4 39.2-78.5 72.1-125.6 97.9-6.1 3.4-6.6 13.7 0 16.9 0.5 0.2 1 0.4 1.5 0.7-0.9 0.5-1.8 1-2.6 1.5-8.7 4.9-4.5 18 4.9 18.3 16.8 0.6 33.5 1.1 50.3 1.7-21.7 35.1-50.7 64.5-86.3 86.5-7.9 4.9-5.1 18.7 4.9 18.3 6.9-0.3 13.8-0.9 20.6-1.7 75-3.4 137-28.4 186.2-85.3 8.2-9.4-4.9-23-13.9-13.9-42.1 42.7-86.6 62.9-144.4 75 25.7-24.6 48.1-52.3 66.9-82.9 3.2-5.2 0.5-11.3-4.4-13.7-0.7-4.5-4.1-8.5-9.4-8.3-9.4 0.4-18.5-0.2-27.4-1.6 36.9-26.7 68.7-59.7 94.2-97.4 5.7-6.2 11.3-12.6 16.8-19.2 2.9-3.4 2.9-7.4 1.5-10.7 0.5-1 1.1-2 1.6-3 15.5 4 32.6 2.9 48.7 0.1 7.5-1.3 15.9-2.7 24-5 20.9-2.4 40.7-10.1 57.1-23.2 12 19.9 29.8 30.9 55.5 22.5 8.8-2.9 17-7.9 24.3-14.3 0.4 0.2 0.7 0.5 1.1 0.6 0.8 0.3 1.6 0.6 2.4 1l3 1.2c2.2 0.9 4.5 1.8 6.7 2.6 35.6 13.3 78.3 23.8 112.6 7.9 2.7-0.6 5.4-1.2 8-1.9 1.5 0.4 3.2 0.4 5.1 0 1.2-0.3 2.3-0.6 3.4-0.9 2.4 0.7 4.9 1.2 7.4 1.6 0.8 2.8 2.7 5.3 6.1 6.6 1.9 0.7 3.8 1.4 5.6 2.1l1.2 0.6c0.7 0.2 1.3 0.4 2 0.7 13.9 5.1 27.9 9.8 42 14 29.1 9.7 58.1 19.3 87.2 29-11.1 3.7-22.2 7.4-33.4 11.2-4.9 1.6-8.5 6.8-6.8 12.1 0.4 1.4 0.9 2.7 1.4 4.1-3 3.6-3.2 9.4 0.3 13.4 3.8 4.3 7.6 8.7 11.4 13 11.4 20.6 27 38.3 45.9 52.1 1.9 2.1 3.7 4.2 5.6 6.3-50.4 1.6-74 1.6-120.3-19.4-11.3-5.1-21.3 11.2-9.9 16.9 56.6 28.5 92.2 31.1 155.4 26.1 4.6-0.4 8-3.3 9.1-6.9 2.3-0.3 4.6-0.5 7-0.9 10.5-1.5 8-16 0-18.9-12-4.3-23.1-10.2-33.3-17.4-14.5-16.4-29-32.9-43.4-49.3 24-3.2 46.5-12.4 66.2-27.5 4.6-3.5 5.7-9.4 3.2-13.6l15.3-5.1c10.6-3.6 8.9-19-2.4-19.4z m-609.7-107c-2.4-16.4-3.3-31.9-3.9-38.6-3.3-32.6-10.4-67.3-6.1-100.2 1-7.6 2.7-16 6-23.3 3.6-5.8 7.8-11 12.6-15.3 16-10.3 35.5-1.2 49.9 8.6 30.7 21 57.9 49 83.3 75.9 2.3 2.5 5 3.2 7.6 2.9-0.9 3-1.8 6.1-2.4 9.1-3.7 16.2-4.8 47.6-0.5 78.6-12.2-5.5-27.4-7.2-42.4-7.6-25.3-7.4-55.1-3-79.7 2.9-6.9 1.6-15.7 3.8-24.4 7zM405 405.7c-4 4.5-10.1 7-16.3 8.7-16.1 1.7-32.8-0.2-48.1-5.3 0.4-4.3-1.7-8.6-6.8-10-6.5-1.8-12.5-2.4-18.7-2.4-6-4-11.4-8.7-16.4-13.7 4.1-8.5 13.9-15.2 25.3-17.8 17.6-4.1 36.1-2 53.9-1.1 3.7 0.2 7.4 0.3 11.2 0.4 5.2 2.3 9.8 5.5 13.6 9.9 7.3 8.6 10.6 22 2.3 31.3z m24.7-15.2c-0.4-6.9-2.5-13.6-5.9-19.7 8.1 4.7 14.3 12.3 5.9 19.7z m9.3-144.4c-19.4-20.5-39.7-40-61.2-58.3-10.9-9.3-22.4-19.2-35.2-26.4 42.3 5.4 74.3 49 97.2 81.9-0.3 0.9-0.6 1.9-0.8 2.8z m78.8-12.5c4.6 3.4 8.8 7.7 12.4 12.4-0.9 1.2-1.4 2.5-1.7 3.8-10.9-9.2-24.8-14.9-38.5-13.4 8.9-4.5 18.6-5.1 27.8-2.8zM455 262.2c0.2-1.5 0.5-2.9 0.7-4.3 3.7-8.6 8.8-16.7 15.6-22.5 0.9 2.4 2.6 4.3 4.7 5.4-0.5 0.2-1 0.4-1.4 0.7-8.4 4.6-14.7 12-19.6 20.7z m81.6 100.9c-3.4 7.4-7.5 14.5-12.2 21.2-0.5 0.6-1 1.2-1.6 1.8-11.3 11.4-25.3 18.7-37.2 8.9-3.1-3.2-5.9-7.1-8.4-11.5-2.8-4.9-5.3-10-7.6-15.2-2.1-6-3.8-12.1-5-18-5.3-24.7-4.5-55.4 7.8-78.1 19.2-35.2 52.1-6.2 59.3 20 5.6 20.6 8.2 48.8 4.9 70.9z m3.2-100.9c0.1 0 0.1-0.1 0.2-0.1 0.1 0.3 0.3 0.6 0.4 1-0.2-0.4-0.4-0.6-0.6-0.9zM747 195.3c16.9 25.1 18.5 56.4 16.2 85.6-2.2 27.1-5.8 56.4-15.9 81.8-5.3 13.3-14.4 27.1-26.2 36.8 44.1-47.7 37.7-134.8 14.5-193.6-6.3-16-15.2-29.8-26.6-39.9 15.2 4.5 28.3 15 38 29.3zM556.3 408.6c-4.6-1.6-9.1-3.4-13.5-5 6.7-8.4 12.4-17.7 16.9-26.8 0.4 0 0.8 0 1.1 0.1-5.4 6.8 0.1 18 10 15.7 12.7-3 25.4-3.6 37.7-2 12 5.6 23.6 15.4 34.6 23.7-29 5-58.6 3.3-86.8-5.7z m129.4-6.4c-1.2-12-9.5-24.5-21-31.8-27.8-17.7-62.8-22.6-95.4-18.1 2.6-8.6 4.4-17.4 5.4-26.3 7.1-27.9 6.9-58.3-9.8-81.9 4.3-6.7 8.7-13.6 13.3-20.4 26.5-24.5 57.6-45.9 90.6-56.1 28.3 4.2 44.6 31 53.9 61 17.9 57.2 21 142.1-37 173.6z" fill="#901D22" /></svg>