<?xml version="1.0" standalone="no"?><!DOCTYPE svg PUBLIC "-//W3C//DTD SVG 1.1//EN" "http://www.w3.org/Graphics/SVG/1.1/DTD/svg11.dtd"><svg class="icon" width="200px" height="200.00px" viewBox="0 0 1024 1024" version="1.1" xmlns="http://www.w3.org/2000/svg"><path d="M981.976 137.093h-147.34v80.368c0 36.988-29.985 66.973-66.972 66.973-36.988 0-66.973-29.985-66.973-66.973v-80.368H325.646v80.368c0 36.988-29.985 66.973-66.973 66.973-36.987 0-66.972-29.985-66.972-66.973v-80.368H44.361c-14.795 0-26.789 11.994-26.789 26.789v776.882c0 14.795 11.995 26.789 26.789 26.789h937.614c14.795 0 26.789-11.994 26.789-26.789V163.883c0.001-14.796-11.994-26.79-26.788-26.79z" fill="#0084FF" /><path d="M888.215 391.59H138.123c-14.795 0-26.789 11.994-26.789 26.789v428.624c0 14.795 11.993 26.789 26.789 26.789h750.092c14.796 0 26.789-11.994 26.789-26.789V418.378c0.001-14.794-11.993-26.788-26.789-26.788z" fill="#4DEDE4" /><path d="M298.858 739.847h-26.789c-7.398 0-13.394 5.997-13.394 13.394v26.789c0 7.398 5.997 13.394 13.394 13.394h26.789c7.397 0 13.394-5.997 13.394-13.394v-26.789c0-7.397-5.997-13.394-13.394-13.394z m93.761 0H365.83c-7.398 0-13.395 5.997-13.395 13.394v26.789c0 7.398 5.997 13.394 13.395 13.394h26.789c7.398 0 13.394-5.997 13.394-13.394v-26.789c0-7.397-5.997-13.394-13.394-13.394z m93.762 0h-26.789c-7.398 0-13.394 5.997-13.394 13.394v26.789c0 7.398 5.997 13.394 13.394 13.394h26.789c7.397 0 13.394-5.997 13.394-13.394v-26.789c0-7.397-5.997-13.394-13.394-13.394z m281.284 0h-26.789c-7.398 0-13.394 5.997-13.394 13.394v26.789c0 7.398 5.997 13.394 13.394 13.394h26.789c7.398 0 13.394-5.997 13.394-13.394v-26.789c0-7.397-5.996-13.394-13.394-13.394z" fill="#0084FF" /><path d="M580.142 739.847h-26.789c-7.398 0-13.395 5.997-13.395 13.394v26.789c0 7.398 5.997 13.394 13.395 13.394h26.789c7.398 0 13.394-5.997 13.394-13.394v-26.789c0-7.397-5.996-13.394-13.394-13.394z m93.762 0h-26.789c-7.398 0-13.394 5.997-13.394 13.394v26.789c0 7.398 5.997 13.394 13.394 13.394h26.789c7.397 0 13.394-5.997 13.394-13.394v-26.789c0-7.397-5.997-13.394-13.394-13.394z" fill="#FFFFFF" /><path d="M492.528 628.062H386.837v-26.58l46.566-44.683c9.767-9.348 16.603-17.196 20.511-23.545 3.906-6.348 5.86-12.94 5.86-19.778 0-15.417-8.267-23.127-24.801-23.127-13.883 0-27.312 5.583-40.288 16.744V477.06c13.882-9.209 29.649-13.813 47.299-13.813 15.975 0 28.637 4.065 37.986 12.191 9.348 8.128 14.022 19.377 14.022 33.748 0 18.977-11.511 38.859-34.533 59.648l-33.8 30.451v0.628h66.868v28.149z m132.166 0H519.003v-26.58l46.567-44.683c9.766-9.348 16.603-17.196 20.51-23.545 3.906-6.348 5.86-12.94 5.86-19.778 0-15.417-8.267-23.127-24.801-23.127-13.884 0-27.313 5.583-40.288 16.744V477.06c13.882-9.209 29.648-13.813 47.299-13.813 15.976 0 28.637 4.065 37.986 12.191 9.348 8.128 14.022 19.377 14.022 33.748 0 18.977-11.511 38.859-34.532 59.648l-33.801 30.451v0.628h66.868v28.149zM258.674 43.333c-22.192 0-40.184 17.991-40.184 40.184v133.945c0 22.192 17.991 40.183 40.184 40.183 22.192 0 40.184-17.991 40.184-40.183V83.517c0-22.193-17.992-40.184-40.184-40.184z m508.991 0c-22.192 0-40.183 17.991-40.183 40.184v133.945c0 22.192 17.991 40.183 40.183 40.183 22.193 0 40.184-17.991 40.184-40.183V83.517c0-22.193-17.991-40.184-40.184-40.184z" fill="#0084FF" /></svg>