<?xml version="1.0" standalone="no"?><!DOCTYPE svg PUBLIC "-//W3C//DTD SVG 1.1//EN" "http://www.w3.org/Graphics/SVG/1.1/DTD/svg11.dtd"><svg class="icon" width="200px" height="200.00px" viewBox="0 0 1024 1024" version="1.1" xmlns="http://www.w3.org/2000/svg"><path d="M209.493333 106.666667h597.333334a64 64 0 0 1 63.914666 67.093333L856.426667 469.333333H160.938667l-15.36-295.338666A64 64 0 0 1 209.493333 106.666667z" fill="#C5C5C5" /><path d="M171.370667 213.333333h681.472a64 64 0 0 1 63.488 72.042667l-36.842667 290.56H145.493333L107.882667 285.546667A64 64 0 0 1 171.370667 213.333333z" fill="#3866D0" /><path d="M191.296 917.333333h650.154667a64 64 0 0 0 63.722666-70.037333L879.424 576H145.493333L127.424 849.109333A64 64 0 0 0 191.296 917.333333z" fill="#4688F4" /><path d="M514.325333 917.333333h327.125334a64 64 0 0 0 63.722666-70.037333L879.424 576H145.493333l323.626667 322.666667A64 64 0 0 0 514.346667 917.333333z" fill="#437BE4" /><path d="M682.666667 170.666667m-21.333334 0a21.333333 21.333333 0 1 0 42.666667 0 21.333333 21.333333 0 1 0-42.666667 0Z" fill="#EFEFEF" /><path d="M320 170.666667m-21.333333 0a21.333333 21.333333 0 1 0 42.666666 0 21.333333 21.333333 0 1 0-42.666666 0Z" fill="#EFEFEF" /><path d="M400.085333 404.992c31.914667 0 58.197333 7.978667 77.909334 24.405333 19.242667 16.426667 29.098667 38.485333 29.098666 66.645334 0 37.546667-18.304 62.890667-54.912 75.093333 19.712 6.101333 34.730667 15.488 45.056 28.629333 11.264 13.141333 16.896 29.568 16.896 49.28 0 30.506667-10.794667 55.381333-31.914666 74.624-21.589333 19.712-49.749333 29.568-84.48 29.568-31.914667 0-57.728-8.448-77.909334-24.405333-23.936-19.712-37.077333-48.341333-39.893333-85.888h38.954667c0.938667 26.282667 9.856 46.464 26.282666 60.074667 14.08 11.264 31.445333 17.365333 52.565334 17.365333 23.936 0 43.178667-7.04 57.728-20.650667 13.141333-13.141333 20.181333-29.568 20.181333-49.28 0-20.181333-6.570667-35.669333-19.712-46.933333-13.141333-11.264-30.976-16.426667-54.442667-16.426667h-27.221333v-30.037333h25.813333c22.528 0 39.424-5.162667 51.157334-15.018667 11.733333-10.325333 17.834667-24.874667 17.834666-43.648 0-18.773333-6.101333-33.322667-17.365333-43.648-12.202667-11.264-29.568-16.426667-51.157333-16.426666-22.528 0-39.893333 5.632-52.565334 17.834666-13.141333 12.202667-20.650667 29.568-22.997333 52.096H286.976c2.816-32.384 15.018667-57.728 35.669333-76.032 19.712-18.304 45.525333-27.221333 77.44-27.221333z m258.261334 6.570667h30.037333V746.666667h-38.485333V458.496c-21.12 21.589333-47.402667 36.608-78.848 45.994667v-38.485334a199.466667 199.466667 0 0 0 46.933333-20.181333 194.346667 194.346667 0 0 0 40.362667-34.261333z" fill="#FFFFFF" /><path d="M400.085333 404.992c31.914667 0 58.197333 7.978667 77.909334 24.405333 19.242667 16.426667 29.098667 38.485333 29.098666 66.645334 0 37.546667-18.304 62.890667-54.912 75.093333 0.362667 0.106667 2.346667 0.832 5.909334 2.133333h-83.818667v-16.213333h25.813333c22.528 0 39.424-5.162667 51.157334-15.018667 11.733333-10.325333 17.834667-24.874667 17.834666-43.648 0-18.773333-6.101333-33.322667-17.365333-43.648-12.202667-11.264-29.568-16.426667-51.157333-16.426666-22.528 0-39.893333 5.632-52.565334 17.834666-13.141333 12.202667-20.650667 29.568-22.997333 52.096H286.976c2.816-32.384 15.018667-57.728 35.669333-76.032 19.712-18.304 45.525333-27.221333 77.44-27.221333z m258.261334 6.570667h30.037333v164.373333h-38.485333v-117.44c-21.12 21.589333-47.402667 36.608-78.848 45.994667v-38.485334a199.466667 199.466667 0 0 0 46.933333-20.181333 194.346667 194.346667 0 0 0 40.362667-34.261333z" fill="#D3D3D3" /></svg>