<?xml version="1.0" standalone="no"?><!DOCTYPE svg PUBLIC "-//W3C//DTD SVG 1.1//EN" "http://www.w3.org/Graphics/SVG/1.1/DTD/svg11.dtd"><svg class="icon" width="200px" height="200.00px" viewBox="0 0 1024 1024" version="1.1" xmlns="http://www.w3.org/2000/svg"><path d="M183 319.1h658.1v474H183z" fill="#1F53CC" /><path d="M183 319.1h658.1V351H183z" fill="#1B48B0" /><path d="M162.5 198h699v121.1h-699z" fill="#FECD44" /><path d="M162.5 198h699v15.7h-699z" fill="#EBBD3F" /><path d="M710.6 262m-23.8 0a23.8 23.8 0 1 0 47.6 0 23.8 23.8 0 1 0-47.6 0Z" fill="#B89431" /><path d="M710.6 277.9c-9.9 0-17.9-8-17.9-17.9v-68.3c0-9.9 8-17.9 17.9-17.9 9.9 0 17.9 8 17.9 17.9V260c0 9.9-8 17.9-17.9 17.9z" fill="#1F53CC" /><path d="M289.2 717.2h445.6v24.3H289.2z" fill="#00F0D4" /><path d="M464.6 448.3v177.8h-49.1V509.6c-8 6-15.6 10.9-23.1 14.7-7.4 3.7-16.8 7.3-28 10.7v-39.8c16.5-5.3 29.4-11.7 38.5-19.2 9.1-7.5 16.3-16.7 21.5-27.7h40.2zM659.6 626.2H513.8c1.7-14.4 6.7-27.9 15.2-40.6 8.5-12.7 24.3-27.6 47.6-44.9 14.2-10.6 23.3-18.6 27.3-24.1s6-10.7 6-15.6c0-5.3-2-9.9-5.9-13.7-3.9-3.8-8.9-5.7-14.8-5.7-6.2 0-11.3 1.9-15.2 5.8-3.9 3.9-6.6 10.8-7.9 20.6l-48.7-3.9c1.9-13.7 5.4-24.3 10.5-32 5.1-7.7 12.3-13.6 21.5-17.7 9.3-4.1 22.1-6.1 38.5-6.1 17.1 0 30.4 1.9 39.9 5.8s17 9.9 22.4 17.9c5.4 8.1 8.2 17.1 8.2 27.1 0 10.7-3.1 20.8-9.4 30.5-6.2 9.7-17.6 20.4-34 32-9.8 6.8-16.3 11.5-19.6 14.2-3.3 2.7-7.2 6.2-11.6 10.6h75.9v39.8z" fill="#FFFFFF" /><path d="M719.2 773.9l-31.1 12.5-8.1 2.1-7.4 1.7-7.6 1.9-5.4 1H841v-82h-37z" fill="#0B42BF" /><path d="M659.6 793.1s110.9-15.2 106.7-124.4c0 0 62.7-5.3 74.8 42.4-0.1 0-59.1 61.2-181.5 82z" fill="#4B72CC" /><path d="M313.4 262m-23.8 0a23.8 23.8 0 1 0 47.6 0 23.8 23.8 0 1 0-47.6 0Z" fill="#B89431" /><path d="M313.4 277.9c-9.9 0-17.9-8-17.9-17.9v-68.3c0-9.9 8-17.9 17.9-17.9 9.9 0 17.9 8 17.9 17.9V260c0 9.9-8 17.9-17.9 17.9z" fill="#1F53CC" /><path d="M768.3 851.8c1.9 0 1.9-3 0-3-2 0-2 3 0 3z" fill="#EBBD3F" /><path d="M702.5 441.8m-15.7 0a15.7 15.7 0 1 0 31.4 0 15.7 15.7 0 1 0-31.4 0Z" fill="#FC355D" /></svg>