<?xml version="1.0" standalone="no"?><!DOCTYPE svg PUBLIC "-//W3C//DTD SVG 1.1//EN" "http://www.w3.org/Graphics/SVG/1.1/DTD/svg11.dtd"><svg class="icon" width="200px" height="200.00px" viewBox="0 0 1024 1024" version="1.1" xmlns="http://www.w3.org/2000/svg"><path fill="#6e05be" d="M388.4032 178.432l112.2304-112.2304a51.2 51.2 0 0 1 72.3968 0l112.2816 112.2304h158.72a51.2 51.2 0 0 1 51.2 51.2v158.72l112.2816 112.2816a51.2 51.2 0 0 1 0 72.3968l-112.2816 112.2816v158.72a51.2 51.2 0 0 1-51.2 51.2h-158.72l-112.2816 112.2816a51.2 51.2 0 0 1-72.3968 0l-112.2304-112.2816h-158.72a51.2 51.2 0 0 1-51.2-51.2v-158.72l-112.2816-112.2816a51.2 51.2 0 0 1 0-72.3968l112.2304-112.2304v-158.72a51.2 51.2 0 0 1 51.2-51.2h158.72z m310.272 161.8432L332.8 706.2016l36.1984 36.1984 365.9264-365.8752-36.2496-36.2496zM332.8 332.8v102.4h102.4v-102.4h-102.4z m307.2 307.2v102.4h102.4v-102.4h-102.4z"  /></svg>